<?xml version="1.0" encoding="UTF-8" standalone="no"?><svg xmlns="http://www.w3.org/2000/svg" xmlns:xlink="http://www.w3.org/1999/xlink" fill="#ffffff" height="237.4" preserveAspectRatio="xMidYMid meet" version="1" viewBox="0.0 0.0 237.4 237.4" width="237.4" zoomAndPan="magnify"><g id="change1_1"><path d="M130.1,83.1v19.3h24.3l-3.4,26.4h-20.9v60.5h-26.5v-60.5H80.9v-26.4h22.7V83.1c0-20.9,16.9-35,37.8-35c9.2,0,15,1.4,15,1.4 v22.3h-15C135.2,71.8,130.1,76.9,130.1,83.1z"/><path d="M118.7,237.4C53.3,237.4,0,184.2,0,118.7S53.3,0,118.7,0c65.5,0,118.7,53.3,118.7,118.7S184.2,237.4,118.7,237.4z M118.7,6.5C56.8,6.5,6.5,56.8,6.5,118.7s50.3,112.2,112.2,112.2c61.9,0,112.2-50.3,112.2-112.2S180.6,6.5,118.7,6.5z"/></g></svg>