<?xml version="1.0" encoding="UTF-8" standalone="no"?><svg xmlns="http://www.w3.org/2000/svg" xmlns:xlink="http://www.w3.org/1999/xlink" fill="#ffffff" height="237.4" preserveAspectRatio="xMidYMid meet" version="1" viewBox="0.0 0.0 237.4 237.4" width="237.4" zoomAndPan="magnify"><g id="change1_1"><path d="M170.9,92.6c0,0,1.8,37.9-27.1,61.3c-43.1,35-89.6,6.6-89.6,6.6s11.3,0.2,21.3-2.5c10-2.7,17.1-9.1,17.1-9.1 s-10.9-2.3-16.5-6.4c-5.7-4.1-7.8-12-7.8-12s3.7,0.3,6.1,0.3c2.4-0.1,5.3-1.2,5.3-1.2s-7.8-0.9-15.1-9.1 c-5.7-6.4-5.3-17.1-5.3-17.1s3.4,2,5.3,2.5c1.8,0.5,5.3,0.5,5.3,0.5s-6.8-4.1-9.9-14.5c-3-10.5,2.8-21.1,2.8-21.1 S72.8,83,87.9,90.9c15.1,7.9,29.3,7.6,29.3,7.6s-2.1-6.3,1.5-15.5c3.6-9.3,11.8-15.9,24.2-16.9c12.4-1,20.3,8.4,20.3,8.4 s3.8-0.7,8.2-2.3c4.4-1.6,8.7-3.6,8.7-3.6s-1.5,4.7-4.5,8.4c-3,3.7-6.4,5.9-6.4,5.9s3.9-0.3,7.8-1.4c3.9-1.1,6.1-2.2,6.1-2.2 C178.8,86.9,170.9,92.6,170.9,92.6z"/><path d="M118.7,237.4C53.3,237.4,0,184.2,0,118.7S53.3,0,118.7,0s118.7,53.3,118.7,118.7S184.2,237.4,118.7,237.4z M118.7,6.5 C56.8,6.5,6.5,56.8,6.5,118.7s50.3,112.2,112.2,112.2s112.2-50.3,112.2-112.2S180.6,6.5,118.7,6.5z"/></g></svg>